<svg width="64.000000" height="64.000000" viewBox="0 0 64 64" fill="none" xmlns="http://www.w3.org/2000/svg" xmlns:xlink="http://www.w3.org/1999/xlink">
	<desc>
			Created with Pixso.
	</desc>
	<defs>
		<clipPath id="clip9_8">
			<rect rx="-0.500000" width="63.000000" height="63.000000" transform="translate(0.500000 0.500000)" fill="white" fill-opacity="0"/>
		</clipPath>
	</defs>
	<g opacity="0.780000">
		<rect rx="-0.500000" width="63.000000" height="63.000000" transform="translate(0.500000 0.500000)" fill="#FFFFFF" fill-opacity="0"/>
		<g clip-path="url(#clip9_8)">
			<path d="M53.33 32C53.33 37.89 48.55 42.66 42.66 42.66C36.77 42.66 32 37.89 32 32C32 26.1 36.77 21.33 42.66 21.33C48.55 21.33 53.33 26.1 53.33 32Z" fill="#19BCFE" fill-opacity="1.000000" fill-rule="evenodd"/>
			<path d="M21.33 64C24.16 64 26.87 62.87 28.87 60.87C30.87 58.87 32 56.16 32 53.33L32 42.66L21.33 42.66C18.5 42.66 15.79 43.79 13.79 45.79C11.79 47.79 10.66 50.5 10.66 53.33C10.66 56.16 11.79 58.87 13.79 60.87C15.79 62.87 18.5 64 21.33 64Z" fill="#09CF83" fill-opacity="1.000000" fill-rule="evenodd"/>
			<path d="M21.33 42.66L32 42.66L32 21.33L21.33 21.33C18.5 21.33 15.79 22.45 13.79 24.45C11.79 26.45 10.66 29.17 10.66 32C10.66 34.82 11.79 37.54 13.79 39.54C15.79 41.54 18.5 42.66 21.33 42.66Z" fill="#A259FF" fill-opacity="1.000000" fill-rule="evenodd"/>
			<path d="M21.33 21.33L32 21.33L32 0L21.33 0C18.5 0 15.79 1.12 13.79 3.12C11.79 5.12 10.66 7.83 10.66 10.66C10.66 13.49 11.79 16.2 13.79 18.2C15.79 20.2 18.5 21.33 21.33 21.33Z" fill="#F24E1E" fill-opacity="1.000000" fill-rule="evenodd"/>
			<path d="M42.66 21.33L32 21.33L32 0L42.66 0C45.49 0 48.2 1.12 50.2 3.12C52.2 5.12 53.33 7.83 53.33 10.66C53.33 13.49 52.2 16.2 50.2 18.2C48.2 20.2 45.49 21.33 42.66 21.33Z" fill="#FF7262" fill-opacity="1.000000" fill-rule="evenodd"/>
		</g>
	</g>
</svg>
