<svg width="65.000000" height="63.823364" viewBox="0 0 65 63.8234" fill="none" xmlns="http://www.w3.org/2000/svg" xmlns:xlink="http://www.w3.org/1999/xlink">
	<desc>
			Created with Pixso.
	</desc>
	<defs>
		<clipPath id="clip38_6">
			<rect rx="-0.500000" width="64.000000" height="62.823364" transform="translate(0.500000 0.500000)" fill="white" fill-opacity="0"/>
		</clipPath>
	</defs>
	<g opacity="0.780000">
		<rect rx="-0.500000" width="64.000000" height="62.823364" transform="translate(0.500000 0.500000)" fill="#FFFFFF" fill-opacity="0"/>
		<g clip-path="url(#clip38_6)">
			<path d="M4 0L61 0C63.2 0 65 1.79 65 4L65 59.82C65 62.03 63.2 63.82 61 63.82L4 63.82C1.79 63.82 0 62.03 0 59.82L0 4C0 1.79 1.79 0 4 0Z" fill="#FF0066" fill-opacity="1.000000" fill-rule="nonzero"/>
			<path d="M22.11 20.53C24.17 20.5 25.81 18.85 25.79 16.83C25.77 14.81 24.1 13.19 22.04 13.2C19.98 13.21 18.32 14.85 18.32 16.86C18.32 17.35 18.42 17.83 18.62 18.28C18.81 18.73 19.09 19.13 19.44 19.47C19.79 19.82 20.21 20.08 20.67 20.27C21.13 20.45 21.62 20.54 22.11 20.53L22.11 20.53Z" fill="#FFFFFF" fill-opacity="1.000000" fill-rule="nonzero"/>
			<path d="M14.25 40.17C14.04 41.08 13.93 42 13.92 42.93C13.92 46.16 15.7 48.3 19.49 48.3C22.64 48.3 25.19 46.47 27.02 43.51L25.9 47.92L32.14 47.92L35.71 33.88C36.6 30.32 38.33 28.48 40.95 28.48C43.01 28.48 44.29 29.74 44.29 31.82C44.3 32.48 44.21 33.15 44.01 33.79L42.17 40.24C41.91 41.13 41.78 42.06 41.78 42.98C41.78 46.04 43.62 48.29 47.47 48.29C50.76 48.29 53.38 46.21 54.83 41.23L52.37 40.3C51.15 43.64 50.09 44.24 49.25 44.24C48.42 44.24 47.97 43.7 47.97 42.6C47.99 42.03 48.09 41.46 48.25 40.9L50.03 34.61C50.44 33.32 50.64 31.97 50.65 30.62C50.65 25.91 47.75 23.46 44.24 23.46C40.95 23.46 37.6 26.37 35.93 29.44L37.16 23.93L27.63 23.93L26.29 28.78L30.75 28.78L28 39.57C25.85 44.27 21.88 44.35 21.39 44.24C20.57 44.06 20.05 43.75 20.05 42.71C20.07 41.86 20.21 41.02 20.44 40.2L24.62 23.92L14.03 23.92L12.7 28.77L17.1 28.77L14.25 40.17Z" fill="#FFFFFF" fill-opacity="1.000000" fill-rule="nonzero"/>
		</g>
	</g>
</svg>
