<svg width="64.000000" height="56.949951" viewBox="0 0 64 56.95" fill="none" xmlns="http://www.w3.org/2000/svg" xmlns:xlink="http://www.w3.org/1999/xlink">
	<desc>
			Created with Pixso.
	</desc>
	<defs>
		<clipPath id="clip26_111">
			<rect rx="-0.500000" width="63.000000" height="55.949951" transform="translate(0.500000 0.500000)" fill="white" fill-opacity="0"/>
		</clipPath>
	</defs>
	<rect rx="-0.500000" width="63.000000" height="55.949951" transform="translate(0.500000 0.500000)" fill="#FFFFFF" fill-opacity="0"/>
	<g clip-path="url(#clip26_111)">
		<path d="M32 0L13.96 1.87L0 20.27L32 56.86L64 20.27L50.03 1.87L32 0Z" fill="#FDB300" fill-opacity="1.000000" fill-rule="nonzero"/>
		<path d="M0 20.27L32 56.86L12.96 20.27L0 20.27Z" fill="#EB6C00" fill-opacity="1.000000" fill-rule="nonzero"/>
		<path d="M51.03 20.27L32 56.86L64 20.27L51.03 20.27Z" fill="#EB6C00" fill-opacity="1.000000" fill-rule="nonzero"/>
		<path d="M12.96 20.27L32 56.86L51.03 20.27L12.96 20.27Z" fill="#FDAD00" fill-opacity="1.000000" fill-rule="nonzero"/>
		<path d="M13.96 1.87L12.96 20.27L31.99 0L13.96 1.87Z" fill="#FDD231" fill-opacity="1.000000" fill-rule="nonzero"/>
		<path d="M51.03 20.27L50.03 1.87L32 0L51.03 20.27Z" fill="#FDD231" fill-opacity="1.000000" fill-rule="nonzero"/>
		<path d="M51.03 20.27L63.99 20.27L50.03 1.87L51.03 20.27Z" fill="#FDAD00" fill-opacity="1.000000" fill-rule="nonzero"/>
		<path d="M0 20.27L12.96 20.27L13.96 1.87L0 20.27Z" fill="#FDAD00" fill-opacity="1.000000" fill-rule="nonzero"/>
		<path d="M32 0L12.96 20.27L51.03 20.27L32 0Z" fill="#FEEEB7" fill-opacity="1.000000" fill-rule="nonzero"/>
	</g>
</svg>
