<svg width="65.000000" height="63.823120" viewBox="0 0 65 63.8231" fill="none" xmlns="http://www.w3.org/2000/svg" xmlns:xlink="http://www.w3.org/1999/xlink">
	<desc>
			Created with Pixso.
	</desc>
	<defs>
		<clipPath id="clip32_0">
			<rect rx="-0.500000" width="64.000000" height="62.823120" transform="translate(0.500000 0.500000)" fill="white" fill-opacity="0"/>
		</clipPath>
	</defs>
	<g opacity="0.780000">
		<rect rx="-0.500000" width="64.000000" height="62.823120" transform="translate(0.500000 0.500000)" fill="#FFFFFF" fill-opacity="0"/>
		<g clip-path="url(#clip32_0)">
			<path d="M13.67 40.21C13.67 41.09 13.49 41.96 13.15 42.77C12.81 43.59 12.31 44.32 11.67 44.94C11.04 45.56 10.29 46.06 9.46 46.39C8.64 46.73 7.75 46.9 6.86 46.9C5.96 46.9 5.08 46.73 4.25 46.39C3.42 46.06 2.67 45.56 2.04 44.94C1.41 44.32 0.91 43.58 0.57 42.77C0.22 41.96 0.05 41.09 0.05 40.21C0.05 39.34 0.22 38.47 0.57 37.65C0.91 36.84 1.41 36.11 2.04 35.49C2.67 34.86 3.43 34.37 4.25 34.04C5.08 33.7 5.96 33.53 6.86 33.53L13.67 33.53L13.67 40.21L13.67 40.21ZM17.07 40.21C17.07 39.34 17.25 38.47 17.59 37.65C17.93 36.84 18.43 36.11 19.06 35.49C19.7 34.86 20.45 34.37 21.27 34.04C22.1 33.7 22.99 33.53 23.88 33.53C24.77 33.53 25.66 33.7 26.49 34.04C27.31 34.37 28.06 34.86 28.7 35.49C29.33 36.11 29.83 36.84 30.17 37.65C30.51 38.47 30.69 39.34 30.69 40.21L30.69 56.93C30.69 57.81 30.51 58.68 30.17 59.49C29.83 60.3 29.33 61.04 28.7 61.66C28.06 62.28 27.31 62.77 26.49 63.11C25.66 63.44 24.77 63.62 23.88 63.62C22.99 63.62 22.1 63.44 21.27 63.11C20.45 62.77 19.7 62.28 19.06 61.66C18.43 61.04 17.93 60.3 17.59 59.49C17.25 58.68 17.07 57.81 17.07 56.93L17.07 40.21Z" fill="#E01E5A" fill-opacity="1.000000" fill-rule="evenodd"/>
			<path d="M23.88 13.37C22.99 13.37 22.1 13.2 21.27 12.86C20.45 12.53 19.7 12.03 19.06 11.41C18.43 10.79 17.93 10.05 17.59 9.24C17.25 8.43 17.07 7.56 17.07 6.68C17.07 5.8 17.25 4.93 17.59 4.12C17.93 3.31 18.43 2.57 19.06 1.95C19.7 1.33 20.45 0.84 21.27 0.5C22.1 0.17 22.99 -0.01 23.88 0C24.77 -0.01 25.66 0.17 26.49 0.5C27.31 0.84 28.06 1.33 28.7 1.95C29.33 2.57 29.83 3.31 30.17 4.12C30.51 4.93 30.69 5.8 30.69 6.68L30.69 13.37L23.88 13.37L23.88 13.37ZM23.88 16.76C24.77 16.76 25.66 16.93 26.49 17.27C27.31 17.61 28.06 18.1 28.7 18.72C29.33 19.34 29.83 20.08 30.17 20.89C30.51 21.7 30.69 22.57 30.69 23.45C30.69 24.33 30.51 25.2 30.17 26.01C29.83 26.82 29.33 27.56 28.7 28.18C28.06 28.8 27.31 29.29 26.49 29.63C25.66 29.96 24.77 30.13 23.88 30.13L6.8 30.13C5.91 30.13 5.02 29.96 4.2 29.63C3.37 29.29 2.62 28.8 1.99 28.18C1.36 27.56 0.85 26.82 0.51 26.01C0.17 25.2 -0.01 24.33 0 23.45C-0.01 22.57 0.17 21.7 0.51 20.89C0.85 20.08 1.36 19.34 1.99 18.72C2.62 18.1 3.37 17.61 4.2 17.27C5.02 16.94 5.91 16.76 6.8 16.76L23.88 16.76L23.88 16.76Z" fill="#36C5F0" fill-opacity="1.000000" fill-rule="evenodd"/>
			<path d="M51.17 23.45C51.17 22.57 51.34 21.7 51.69 20.89C52.03 20.08 52.53 19.34 53.16 18.72C53.8 18.1 54.55 17.6 55.37 17.27C56.2 16.93 57.09 16.76 57.98 16.76C58.87 16.76 59.76 16.93 60.59 17.27C61.41 17.61 62.16 18.1 62.8 18.72C63.43 19.34 63.93 20.08 64.27 20.89C64.61 21.7 64.79 22.57 64.79 23.45C64.79 24.33 64.61 25.2 64.27 26.01C63.93 26.82 63.43 27.56 62.8 28.18C62.16 28.8 61.41 29.29 60.59 29.63C59.76 29.96 58.87 30.13 57.98 30.13L51.17 30.13L51.17 23.45L51.17 23.45ZM47.76 23.45C47.77 24.33 47.59 25.2 47.25 26.01C46.91 26.82 46.4 27.56 45.77 28.18C45.14 28.8 44.39 29.29 43.56 29.63C42.74 29.96 41.85 30.13 40.96 30.13C40.06 30.13 39.18 29.96 38.35 29.63C37.52 29.29 36.77 28.8 36.14 28.18C35.51 27.56 35 26.82 34.66 26.01C34.32 25.2 34.14 24.33 34.14 23.45L34.14 6.68C34.14 5.8 34.32 4.93 34.66 4.12C35 3.31 35.51 2.57 36.14 1.95C36.77 1.33 37.52 0.84 38.35 0.5C39.18 0.17 40.06 -0.01 40.96 0C41.85 -0.01 42.74 0.17 43.56 0.5C44.39 0.84 45.14 1.33 45.77 1.95C46.4 2.57 46.91 3.31 47.25 4.12C47.59 4.93 47.77 5.8 47.76 6.68L47.76 23.45L47.76 23.45Z" fill="#2EB67D" fill-opacity="1.000000" fill-rule="evenodd"/>
			<path d="M40.96 50.24C41.85 50.24 42.74 50.41 43.56 50.75C44.39 51.09 45.14 51.58 45.77 52.2C46.4 52.82 46.91 53.56 47.25 54.37C47.59 55.18 47.77 56.05 47.76 56.93C47.77 57.81 47.59 58.68 47.25 59.49C46.91 60.3 46.41 61.04 45.77 61.66C45.14 62.28 44.39 62.77 43.56 63.11C42.74 63.44 41.85 63.62 40.96 63.62C40.06 63.62 39.18 63.44 38.35 63.11C37.52 62.77 36.77 62.28 36.14 61.66C35.51 61.04 35 60.3 34.66 59.49C34.32 58.68 34.15 57.81 34.15 56.93L34.15 50.24L40.96 50.24ZM40.96 46.9C40.06 46.9 39.18 46.73 38.35 46.39C37.52 46.06 36.77 45.56 36.14 44.94C35.51 44.32 35.01 43.58 34.66 42.77C34.32 41.96 34.15 41.09 34.15 40.21C34.15 39.34 34.32 38.47 34.66 37.65C35.01 36.84 35.51 36.11 36.14 35.49C36.77 34.86 37.52 34.37 38.35 34.04C39.18 33.7 40.06 33.53 40.96 33.53L58.03 33.53C58.93 33.53 59.81 33.7 60.64 34.04C61.46 34.37 62.22 34.86 62.85 35.49C63.48 36.11 63.98 36.84 64.32 37.65C64.67 38.47 64.84 39.34 64.84 40.21C64.84 41.09 64.67 41.96 64.32 42.77C63.98 43.58 63.48 44.32 62.85 44.94C62.22 45.56 61.46 46.06 60.64 46.39C59.81 46.73 58.93 46.9 58.03 46.9L40.96 46.9Z" fill="#ECB22E" fill-opacity="1.000000" fill-rule="evenodd"/>
		</g>
	</g>
</svg>
