<svg width="65.000000" height="62.841431" viewBox="0 0 65 62.8414" fill="none" xmlns="http://www.w3.org/2000/svg" xmlns:xlink="http://www.w3.org/1999/xlink">
	<desc>
			Created with Pixso.
	</desc>
	<defs>
		<clipPath id="clip26_121">
			<rect rx="-0.500000" width="64.000000" height="61.841431" transform="translate(0.500000 0.500000)" fill="white" fill-opacity="0"/>
		</clipPath>
		<linearGradient x1="32.373657" y1="0.000122" x2="32.373657" y2="62.764656" id="paint_linear_26_127_0" gradientUnits="userSpaceOnUse">
			<stop stop-color="#FFFFFF"/>
			<stop offset="1.000000" stop-color="#FFFFFF" stop-opacity="0.000000"/>
		</linearGradient>
	</defs>
	<g opacity="0.780000">
		<rect rx="-0.500000" width="64.000000" height="61.841431" transform="translate(0.500000 0.500000)" fill="#FFFFFF" fill-opacity="0"/>
		<g clip-path="url(#clip26_121)">
			<mask id="mask26_122" mask-type="alpha" maskUnits="userSpaceOnUse" x="0.000122" y="0.000732" width="64.747078" height="62.764404">
				<path d="M45.91 62.49C46.42 62.69 46.97 62.78 47.53 62.76C48.08 62.74 48.62 62.61 49.12 62.37L62.45 56.12C63.14 55.8 63.72 55.3 64.12 54.67C64.53 54.04 64.74 53.31 64.74 52.57L64.74 10.19C64.74 9.45 64.53 8.72 64.12 8.09C63.72 7.46 63.14 6.96 62.45 6.63L49.12 0.38C48.37 0.03 47.52 -0.09 46.7 0.05C45.87 0.19 45.11 0.57 44.52 1.15L19 23.83L7.89 15.61C7.38 15.24 6.77 15.05 6.14 15.08C5.51 15.11 4.91 15.35 4.44 15.76L0.88 18.92C-0.3 19.96 -0.3 21.76 0.87 22.81L10.51 31.38L0.87 39.95C-0.3 40.99 -0.3 42.79 0.88 43.84L4.44 47C4.91 47.41 5.51 47.65 6.14 47.68C6.77 47.7 7.38 47.52 7.89 47.14L19 38.92L44.52 61.61C44.92 61.99 45.39 62.29 45.91 62.49ZM48.57 17.06L29.2 31.38L48.57 45.7L48.57 17.06Z" fill="#FFFFFF" fill-opacity="1.000000" fill-rule="nonzero"/>
			</mask>
			<g mask="url(#mask26_122)">
				<path d="M62.49 6.64L49.15 0.39C48.4 0.03 47.55 -0.08 46.72 0.05C45.9 0.19 45.14 0.57 44.55 1.15L0.88 39.95C-0.3 40.99 -0.3 42.79 0.88 43.84L4.45 47C4.91 47.41 5.51 47.65 6.14 47.68C6.77 47.7 7.39 47.52 7.89 47.14L60.48 8.27C62.25 6.96 64.78 8.19 64.78 10.35L64.78 10.2C64.78 9.45 64.57 8.73 64.16 8.1C63.76 7.47 63.18 6.97 62.49 6.64Z" fill="#0065A9" fill-opacity="1.000000" fill-rule="nonzero"/>
			</g>
			<g mask="url(#mask26_122)">
				<path d="M62.49 56.11L49.15 62.37C48.4 62.72 47.55 62.84 46.72 62.7C45.9 62.57 45.14 62.18 44.55 61.61L0.88 22.81C-0.3 21.76 -0.3 19.96 0.88 18.92L4.45 15.76C4.91 15.35 5.51 15.11 6.14 15.08C6.77 15.05 7.39 15.24 7.89 15.61L60.48 54.49C62.25 55.79 64.78 54.57 64.78 52.41L64.78 52.56C64.78 53.3 64.57 54.03 64.16 54.66C63.76 55.28 63.18 55.79 62.49 56.11Z" fill="#007ACC" fill-opacity="1.000000" fill-rule="nonzero"/>
			</g>
			<g mask="url(#mask26_122)">
				<path d="M49.11 62.37C48.35 62.73 47.51 62.84 46.68 62.71C45.86 62.57 45.1 62.19 44.51 61.61C46 63.07 48.55 62.04 48.55 59.98L48.55 2.78C48.55 0.73 46 -0.3 44.51 1.15C45.1 0.57 45.86 0.19 46.68 0.05C47.51 -0.08 48.35 0.03 49.11 0.39L62.45 6.64C63.13 6.96 63.71 7.46 64.12 8.09C64.52 8.72 64.74 9.45 64.74 10.19L64.74 52.57C64.74 54.09 63.85 55.47 62.45 56.13L49.11 62.38L49.11 62.37Z" fill="#1F9CF0" fill-opacity="1.000000" fill-rule="nonzero"/>
			</g>
			<g mask="url(#mask26_122)">
				<path d="M45.91 62.49C46.42 62.69 46.97 62.78 47.53 62.76C48.08 62.74 48.62 62.6 49.12 62.37L62.45 56.12C63.14 55.8 63.72 55.29 64.12 54.67C64.53 54.04 64.74 53.31 64.74 52.57L64.74 10.19C64.74 9.45 64.53 8.72 64.12 8.09C63.72 7.46 63.14 6.96 62.45 6.63L49.12 0.38C48.37 0.03 47.52 -0.09 46.7 0.05C45.87 0.19 45.11 0.57 44.52 1.15L19 23.83L7.89 15.61C7.38 15.24 6.77 15.05 6.14 15.08C5.51 15.11 4.91 15.35 4.44 15.76L0.88 18.92C-0.3 19.96 -0.3 21.76 0.87 22.81L10.51 31.38L0.87 39.95C-0.3 40.99 -0.3 42.79 0.88 43.83L4.44 46.99C4.91 47.41 5.51 47.65 6.14 47.68C6.77 47.7 7.38 47.51 7.89 47.14L19 38.92L44.52 61.61C44.92 61.99 45.39 62.29 45.91 62.49ZM48.57 17.06L29.2 31.38L48.57 45.7L48.57 17.06L48.57 17.06Z" fill="url(#paint_linear_26_127_0)" fill-opacity="0.250000" fill-rule="nonzero"/>
			</g>
		</g>
	</g>
</svg>
